<svg width="30" height="30" viewBox="0 0 30 30" fill="none" xmlns="http://www.w3.org/2000/svg">
<circle cx="15" cy="15" r="15" fill="#EC1119"/>
<path d="M20.7692 15C20.7723 16.2084 20.2983 17.3692 19.4504 18.2302C19.3427 18.3369 19.1974 18.3969 19.0458 18.3974C18.8943 18.3978 18.7486 18.3385 18.6404 18.2324C18.5321 18.1263 18.47 17.9818 18.4674 17.8303C18.4648 17.6787 18.522 17.5322 18.6266 17.4225C19.2604 16.7756 19.6154 15.906 19.6154 15.0003C19.6154 14.0946 19.2604 13.225 18.6266 12.578C18.522 12.4683 18.4648 12.3218 18.4674 12.1703C18.47 12.0187 18.5321 11.8742 18.6404 11.7681C18.7486 11.662 18.8943 11.6027 19.0458 11.6032C19.1974 11.6036 19.3427 11.6636 19.4504 11.7704C20.2982 12.6312 20.7721 13.7918 20.7692 15ZM20.5869 9.38651C20.4752 9.28185 20.3265 9.22585 20.1736 9.23083C20.0206 9.23581 19.8758 9.30135 19.7712 9.41305C19.6665 9.52475 19.6105 9.67344 19.6155 9.82643C19.6205 9.97942 19.686 10.1242 19.7977 10.2288C20.4666 10.8307 21.0015 11.5666 21.3676 12.3886C21.7338 13.2106 21.923 14.1004 21.923 15.0003C21.923 15.9001 21.7338 16.7899 21.3676 17.6119C21.0015 18.4339 20.4666 19.1698 19.7977 19.7717C19.6861 19.8764 19.6206 20.0211 19.6157 20.174C19.6108 20.3269 19.6668 20.4756 19.7715 20.5872C19.8761 20.6988 20.0208 20.7643 20.1738 20.7692C20.3267 20.7741 20.4753 20.7181 20.5869 20.6134C21.371 19.9036 21.9977 19.0374 22.4266 18.0706C22.8555 17.1038 23.0771 16.0579 23.0771 15.0003C23.0771 13.9426 22.8555 12.8967 22.4266 11.9299C21.9977 10.9631 21.371 10.0963 20.5869 9.38651ZM17.3077 9.18459V20.8154C17.3051 21.0253 17.2456 21.2307 17.1355 21.4096C17.0254 21.5884 16.8689 21.7341 16.6826 21.831C16.4964 21.928 16.2873 21.9726 16.0776 21.9602C15.868 21.9477 15.6656 21.8787 15.4921 21.7604L10.7804 18.4615H8.65386C8.19484 18.4615 7.75461 18.2792 7.43003 17.9546C7.10544 17.63 6.9231 17.1898 6.9231 16.7307V13.2692C6.9231 12.8102 7.10544 12.3699 7.43003 12.0454C7.75461 11.7208 8.19484 11.5384 8.65386 11.5384H10.7798L15.4921 8.23959C15.6657 8.12124 15.8681 8.05218 16.0778 8.03975C16.2875 8.02733 16.4966 8.07201 16.6829 8.16904C16.8692 8.26607 17.0257 8.41182 17.1357 8.59076C17.2458 8.76969 17.3052 8.97454 17.3077 9.18459ZM10.3846 12.6923H8.65386C8.50086 12.6923 8.35411 12.7531 8.24592 12.8613C8.13772 12.9695 8.07694 13.1162 8.07694 13.2692V16.7307C8.07694 16.8837 8.13772 17.0305 8.24592 17.1387C8.35411 17.2469 8.50086 17.3077 8.65386 17.3077H10.3846V12.6923ZM16.1573 20.8165L16.1539 9.18516L11.5385 12.4159V17.5846L16.1539 20.8154L16.1573 20.8165Z" fill="white"/>
</svg>
